# xmcd
#
# Track frame offsets:
#	150
#	15744
#	28638
#	49821
#	60299
#	75500
#	88860
#	103454
#	118176
#	133780
#	150776
#	162499
#	177872
#	191479
#	209444
#	228393
#	242762
#	258306
#	275036
#	292040
#	308296
#	332509
#
# Disc length: 4638 seconds
#
# Revision: 0
# Processed by: cddbd v1.5.2PL0 Copyright (c) Steve Scherf et al.
# Submitted via: EZCDAudioConverter 1.1.0.1
#
DISCID=2f121c16
DTITLE=Various Artist - Blues news is coming... anthology of contemporary finnish blu
DTITLE=es
DYEAR=2006
DGENRE=
TTITLE0=T. Leino Band - Blues news is coming
TTITLE1=Ismo Haavisto Band - Marina
TTITLE2=Bluestone - Losing hand
TTITLE3=Cat Lee and Co. - Let's have a ball (in the fat man's valley)
TTITLE4=Ironweed - The hunter
TTITLE5=Berryman and Bullet - Travelin' man
TTITLE6=Crawfish Kings - Paper in my shoe
TTITLE7=Boppin' Pete Trio - Get on the right track
TTITLE8=Pepe Ahlqvist Duo - Female mosquito
TTITLE9=Erja Lyytinen - High G
TTITLE10=Knucklebone Oscar - Evil
TTITLE11=Jussi Syrén and Groundbreakers - Number 9 blues
TTITLE12=Sonny Boy Magnusson and Acetones - I'm in trouble
TTITLE13=Chicago Bar - Strange how I miss you
TTITLE14=Groovy eyes feat. Tony Uter  - Creole mambo
TTITLE15=One way out - The blues is callin'
TTITLE16=Helge Tallqvist - Juicy harmonica
TTITLE17=Baby Boy Varhama - Strange how I miss you
TTITLE18=JK2 - Muddy boots
TTITLE19=Cosmo Jones Beat Machine - Witches bush
TTITLE20=Masi Sallinen Quartet feat. Bill Simms - Helsinki blues
TTITLE21=Definitely Too Late Blues Band - Back to the river
EXTD=
EXTT0=
EXTT1=
EXTT2=
EXTT3=
EXTT4=
EXTT5=
EXTT6=
EXTT7=
EXTT8=
EXTT9=
EXTT10=
EXTT11=
EXTT12=
EXTT13=
EXTT14=
EXTT15=
EXTT16=
EXTT17=
EXTT18=
EXTT19=
EXTT20=
EXTT21=
PLAYORDER=
